<?xml version="1.0" encoding="UTF-8" standalone="no"?>
<!-- Created with Inkscape (http://www.inkscape.org/) -->

<svg
   width="210mm"
   height="297mm"
   viewBox="0 0 210 297"
   version="1.1"
   id="svg5"
   inkscape:version="1.1 (c68e22c387, 2021-05-23)"
   sodipodi:docname="app_logo_2.svg"
   xmlns:inkscape="http://www.inkscape.org/namespaces/inkscape"
   xmlns:sodipodi="http://sodipodi.sourceforge.net/DTD/sodipodi-0.dtd"
   xmlns="http://www.w3.org/2000/svg"
   xmlns:svg="http://www.w3.org/2000/svg">
  <sodipodi:namedview
     id="namedview7"
     pagecolor="#ffffff"
     bordercolor="#666666"
     borderopacity="1.0"
     inkscape:pageshadow="2"
     inkscape:pageopacity="0.0"
     inkscape:pagecheckerboard="0"
     inkscape:document-units="mm"
     showgrid="false"
     inkscape:zoom="0.77682379"
     inkscape:cx="260.67688"
     inkscape:cy="633.99191"
     inkscape:window-width="1920"
     inkscape:window-height="1057"
     inkscape:window-x="-8"
     inkscape:window-y="-8"
     inkscape:window-maximized="1"
     inkscape:current-layer="layer1" />
  <defs
     id="defs2">
    <clipPath
       clipPathUnits="userSpaceOnUse"
       id="clipPath892">
      <path
         d="M 0,0 H 612 V 792 H 0 Z"
         id="path890" />
    </clipPath>
    <clipPath
       clipPathUnits="userSpaceOnUse"
       id="clipPath908">
      <path
         d="M 0,0 H 612 V 792 H 0 Z"
         id="path906" />
    </clipPath>
  </defs>
  <g
     inkscape:label="Layer 1"
     inkscape:groupmode="layer"
     id="layer1">
    <path
       style="fill:#ffffff;stroke-width:0.999999"
       d="m 109.46558,174.96678 c -1.91282,-0.19673 -3.71847,-1.06939 -5.12686,-2.47778 -1.21616,-1.21617 -2.04137,-2.7361 -2.40804,-4.43535 -0.0605,-0.28052 -3.989112,-29.1417 -4.125662,-30.30904 -0.057,-0.48746 -0.056,-1.50151 0.002,-2.00798 0.20296,-1.77017 0.93024,-3.42664 2.09109,-4.7627 1.189432,-1.36896 2.818562,-2.32219 4.565902,-2.67159 0.16417,-0.0328 10.9848,-1.45947 24.04584,-3.17033 l 23.74734,-3.11063 0.66794,-0.0136 c 0.95696,-0.0196 1.69566,0.0761 2.53041,0.32776 3.01151,0.90788 5.34527,3.47411 6.00622,6.60455 0.0418,0.19784 0.99174,7.1105 2.11104,15.36149 l 2.0351,15.00178 0.0148,0.73183 c 0.0155,0.77003 -0.009,1.14822 -0.11177,1.74685 -0.40078,2.3268 -1.77807,4.45379 -3.69926,5.71289 -0.92256,0.60463 -1.89725,1.00752 -2.91046,1.20305 -0.27478,0.053 -47.19083,6.20413 -47.83846,6.27203 -0.32815,0.0344 -1.24965,0.0326 -1.59724,-0.003 z m 1.17616,-2.63726 c 0.6379,-0.0533 47.5977,-6.21578 47.90291,-6.28621 0.85164,-0.19653 1.68917,-0.61561 2.36683,-1.18429 0.14376,-0.12064 0.30434,-0.26461 0.35686,-0.31994 l 0.0955,-0.10061 -11.45688,-8.3322 c -6.30129,-4.58271 -11.46875,-8.3322 -11.48325,-8.3322 -0.0145,0 -1.38204,1.27896 -3.03897,2.84213 l -3.01261,2.84212 -0.25076,-0.13271 c -0.13791,-0.073 -1.73402,-0.92996 -3.5469,-1.90437 l -3.29614,-1.77166 -0.0759,0.0787 c -0.0643,0.0666 -18.65898,20.92616 -18.77826,21.06547 -0.0371,0.0433 -0.0209,0.0654 0.15689,0.21317 0.87472,0.72724 2.09291,1.22623 3.21852,1.31837 0.41278,0.0338 0.48451,0.0342 0.84219,0.004 z m 3.91918,-13.14477 c 8.69992,-9.75599 9.21375,-10.3381 9.15421,-10.37073 -0.0347,-0.019 -5.30351,-2.85002 -11.70847,-6.29114 l -11.64539,-6.25657 -0.0263,0.25064 c -0.0172,0.16333 -0.015,0.39225 0.006,0.65721 0.0477,0.5969 4.02716,29.93748 4.11609,30.3477 0.0936,0.43181 0.22921,0.84442 0.41208,1.25399 0.17033,0.38149 0.41673,0.80273 0.45006,0.7694 0.0134,-0.0134 4.17211,-4.67561 9.24162,-10.3605 z m 47.87822,3.72817 c 0.17284,-0.3424 0.3764,-0.91915 0.47449,-1.34444 0.106,-0.45954 0.14361,-0.81916 0.14273,-1.36492 l -0.001,-0.55177 -2.02434,-14.92701 c -1.11339,-8.20985 -2.05012,-15.05116 -2.08161,-15.20289 -0.0667,-0.32145 -0.23075,-0.87123 -0.25992,-0.87123 -0.0111,0 -4.30252,4.03976 -9.53662,8.97725 -8.52722,8.04401 -9.51111,8.98107 -9.46441,9.01406 0.0287,0.0202 5.12892,3.73003 11.3339,8.24398 6.20498,4.51395 11.29167,8.20718 11.30374,8.20718 0.0121,0 0.0629,-0.0811 0.11292,-0.18021 z m -17.58969,-24.3441 12.64957,-11.9351 -0.18142,-0.18464 c -0.7511,-0.76442 -1.72069,-1.33371 -2.72614,-1.60064 -0.55339,-0.14692 -0.8552,-0.18563 -1.44841,-0.18579 h -0.53725 l -23.65379,3.09825 c -13.00959,1.70403 -23.79101,3.12536 -23.95872,3.1585 -1.52137,0.30064 -2.89822,1.27633 -3.76544,2.66835 -0.13461,0.21607 -0.25065,0.43684 -0.23687,0.45063 0.005,0.005 6.98033,3.75373 15.50036,8.33015 l 15.49097,8.32076 0.10879,-0.0926 c 0.0598,-0.0509 5.80109,-5.46341 12.75835,-12.02771 z m -53.839342,26.35331 c -4.39243,-0.31621 -11.330952,-0.8144 -15.418937,-1.10708 -4.321933,-0.30943 -7.384818,-0.54013 -7.318299,-0.55122 0.323479,-0.0539 29.984316,-3.92515 29.994086,-3.91472 0.0117,0.0125 0.83254,6.05177 0.83157,6.11811 -2.9e-4,0.02 -0.0234,0.0349 -0.0514,0.0331 -0.028,-0.002 -3.64463,-0.26195 -8.03706,-0.57816 z m -13.305984,-9.36184 c -10.944044,-0.41755 -19.904706,-0.76562 -19.912576,-0.77349 -0.008,-0.008 8.763383,-1.16269 19.491688,-2.56625 10.728302,-1.40356 19.545212,-2.55787 19.593132,-2.56514 l 0.0871,-0.0132 0.35797,2.65249 c 0.19689,1.45886 0.40032,2.96285 0.45206,3.3422 l 0.0941,0.68972 -0.1326,-0.004 c -0.0729,-0.002 -9.08683,-0.3452 -20.030875,-0.76275 z m -7.450029,-11.63187 c -14.226967,-0.88934 -25.873437,-1.6232 -25.881047,-1.63081 -0.008,-0.008 11.39007,-1.50626 25.328168,-3.33033 13.938098,-1.82408 25.348012,-3.31049 25.355362,-3.30314 0.0133,0.0133 1.33794,9.74034 1.33969,9.83748 6.9e-4,0.0419 -0.0234,0.0502 -0.13702,0.0473 -0.0759,-0.002 -11.77819,-0.73116 -26.005153,-1.62049 z"
       id="path1114"
       sodipodi:nodetypes="cssscsssccssscscssscccssscssscsscsscsccccscccssscccsccsssscssccccssccssscsccccccccsccccscccscccccssscccs" />
    <rect
       style="fill:none;stroke:none;stroke-width:1.665;stroke-linecap:round;stop-color:#000000"
       id="rect1335"
       width="171.66055"
       height="171.66055"
       x="19.169724"
       y="62.669724" />
  </g>
</svg>
